<svg width="1440" height="27" viewBox="0 0 1440 27" fill="none" xmlns="http://www.w3.org/2000/svg">
<g opacity="0.25">
<path d="M0 7.13574C34.2864 7.13574 34.2863 19.7772 68.5727 19.7772C102.859 19.7772 102.859 7.13574 137.132 7.13574C171.405 7.13574 171.418 19.7772 205.705 19.7772C239.991 19.7772 239.991 7.13574 274.277 7.13574C308.564 7.13574 308.564 19.7772 342.837 19.7772C377.11 19.7772 377.123 7.13574 411.409 7.13574C445.696 7.13574 445.696 19.7772 479.982 19.7772C514.268 19.7772 514.268 7.13574 548.555 7.13574C582.841 7.13574 582.828 19.7772 617.114 19.7772C651.4 19.7772 651.4 7.13574 685.687 7.13574C719.973 7.13574 719.973 19.7772 754.246 19.7772C788.519 19.7772 788.532 7.13574 822.819 7.13574C857.105 7.13574 857.105 19.7772 891.405 19.7772C925.705 19.7772 925.678 7.13574 959.964 7.13574C994.251 7.13574 994.264 19.7772 1028.55 19.7772C1062.84 19.7772 1062.84 7.13574 1097.11 7.13574C1131.38 7.13574 1131.4 19.7772 1165.68 19.7772C1199.97 19.7772 1199.97 7.13574 1234.27 7.13574C1268.57 7.13574 1268.55 19.7772 1302.84 19.7772C1337.13 19.7772 1337.13 7.13574 1371.41 7.13574C1405.7 7.13574 1405.71 19.7772 1440 19.7772" fill="black"/>
<path d="M0 7.13574C34.2864 7.13574 34.2863 19.7772 68.5727 19.7772C102.859 19.7772 102.859 7.13574 137.132 7.13574C171.405 7.13574 171.418 19.7772 205.705 19.7772C239.991 19.7772 239.991 7.13574 274.277 7.13574C308.564 7.13574 308.564 19.7772 342.837 19.7772C377.11 19.7772 377.123 7.13574 411.409 7.13574C445.696 7.13574 445.696 19.7772 479.982 19.7772C514.268 19.7772 514.268 7.13574 548.555 7.13574C582.841 7.13574 582.828 19.7772 617.114 19.7772C651.4 19.7772 651.4 7.13574 685.687 7.13574C719.973 7.13574 719.973 19.7772 754.246 19.7772C788.519 19.7772 788.532 7.13574 822.819 7.13574C857.105 7.13574 857.105 19.7772 891.405 19.7772C925.705 19.7772 925.678 7.13574 959.964 7.13574C994.251 7.13574 994.264 19.7772 1028.55 19.7772C1062.84 19.7772 1062.84 7.13574 1097.11 7.13574C1131.38 7.13574 1131.4 19.7772 1165.68 19.7772C1199.97 19.7772 1199.97 7.13574 1234.27 7.13574C1268.57 7.13574 1268.55 19.7772 1302.84 19.7772C1337.13 19.7772 1337.13 7.13574 1371.41 7.13574C1405.7 7.13574 1405.71 19.7772 1440 19.7772" stroke="black" stroke-width="13" stroke-miterlimit="10"/>
</g>
</svg>
